<svg>
	<circle fill="#f88648" stroke="#ffffff" stroke-width="2" cx="14" cy="14" r="14"/>
	<path fill="#ffffff" d="M13.825,12.976c0.519,0,0.963,0.184,1.331,0.553
		c0.369,0.369,0.553,0.812,0.553,1.331s-0.184,0.963-0.553,1.331c-0.369,0.369-0.812,0.553-1.331,0.553
		c-0.519,0-0.963-0.184-1.331-0.553c-0.369-0.369-0.553-0.812-0.553-1.331s0.184-0.963,0.553-1.331
		C12.862,13.161,13.306,12.976,13.825,12.976z M18.431,10.255c0.462,0,0.857,0.164,1.184,0.491s0.491,0.722,0.491,1.184v5.862
		c0,0.462-0.164,0.857-0.491,1.184s-0.722,0.491-1.184,0.491H9.219c-0.462,0-0.857-0.164-1.184-0.491s-0.491-0.722-0.491-1.184V11.93
		c0-0.462,0.164-0.857,0.491-1.184s0.722-0.491,1.184-0.491h1.466l0.334-0.89c0.083-0.214,0.234-0.398,0.455-0.553
		c0.22-0.155,0.446-0.232,0.677-0.232h3.35c0.231,0,0.457,0.077,0.677,0.232c0.22,0.155,0.372,0.339,0.455,0.553l0.334,0.89H18.431z
		 M13.825,17.792c0.807,0,1.497-0.287,2.071-0.86s0.86-1.264,0.86-2.071s-0.287-1.497-0.86-2.071c-0.574-0.574-1.264-0.86-2.071-0.86
		c-0.807,0-1.497,0.287-2.071,0.86c-0.574,0.574-0.86,1.264-0.86,2.071s0.287,1.497,0.86,2.071S13.018,17.792,13.825,17.792z"/>
</svg>