<svg>
	<circle fill="#f88648" stroke="#ffffff" stroke-width="2" cx="14" cy="14" r="14"/>
	<path fill="#ffffff" d="M17.896,8.156h-2.161c0,0.471-0.382,0.852-0.852,0.852h-1.765c-0.471,0-0.852-0.382-0.852-0.852h-2.161
		c-0.538,0-0.974,0.436-0.974,0.974v9.74c0,0.538,0.436,0.974,0.974,0.974h7.792c0.538,0,0.974-0.436,0.974-0.974V9.13
		C18.87,8.592,18.434,8.156,17.896,8.156z M16.697,16.952h-5.393c-0.286,0-0.517-0.232-0.517-0.517s0.232-0.517,0.517-0.517h5.393
		c0.286,0,0.517,0.232,0.517,0.517S16.982,16.952,16.697,16.952z M16.697,14.517h-5.393c-0.286,0-0.517-0.232-0.517-0.517
		s0.232-0.517,0.517-0.517h5.393c0.286,0,0.517,0.232,0.517,0.517S16.982,14.517,16.697,14.517z M16.697,12.082h-5.393
		c-0.286,0-0.517-0.232-0.517-0.517c0-0.286,0.232-0.517,0.517-0.517h5.393c0.286,0,0.517,0.232,0.517,0.517
		C17.214,11.851,16.982,12.082,16.697,12.082z"/>
</svg>