<?xml version="1.0" encoding="utf-8"?>
<!-- Generator: Adobe Illustrator 17.0.0, SVG Export Plug-In . SVG Version: 6.00 Build 0)  -->
<!DOCTYPE svg PUBLIC "-//W3C//DTD SVG 1.1//EN" "http://www.w3.org/Graphics/SVG/1.1/DTD/svg11.dtd">
<svg version="1.1" id="Слой_1" xmlns="http://www.w3.org/2000/svg" xmlns:xlink="http://www.w3.org/1999/xlink" x="0px" y="0px"
	 width="40px" height="40px" viewBox="3 2 40 40" enable-background="new 3 2 40 40" xml:space="preserve">
<g>
	<g>
		<path fill="#FFFFFF" d="M43,39c0,1.657-1.343,3-3,3H6c-1.657,0-3-1.343-3-3V5c0-1.657,1.343-3,3-3h34c1.657,0,3,1.343,3,3V39z"/>
	</g>
</g>
<g>
	<g>
		<path fill="#31A3D6" d="M18.839,12.945c1.217-0.787,2.661-1.229,4.112-1.226c1.577-0.019,3.152,0.475,4.44,1.382
			c1.11,0.781,2.016,1.858,2.574,3.096c0.499,1.085,0.728,2.288,0.681,3.479c-0.062,1.727-0.639,3.394-1.416,4.923
			c-1.111,2.144-2.623,4.056-4.288,5.795c-0.527,0.539-1.067,1.068-1.631,1.569c-0.129,0.109-0.244,0.237-0.394,0.317
			c-1.025-0.951-1.988-1.969-2.89-3.038c-1.092-1.297-2.097-2.673-2.928-4.153c-0.813-1.462-1.471-3.04-1.689-4.709
			c-0.165-1.293-0.009-2.63,0.477-3.842C16.466,15.073,17.518,13.802,18.839,12.945z M22.536,14.562
			c-0.654,0.076-1.291,0.307-1.834,0.681c-0.795,0.539-1.391,1.371-1.636,2.301c-0.202,0.721-0.186,1.498,0.02,2.217
			c0.251,0.848,0.779,1.616,1.496,2.135c0.681,0.505,1.524,0.78,2.37,0.795c0.866,0.006,1.734-0.266,2.436-0.774
			c0.866-0.617,1.465-1.592,1.634-2.641c0.1-0.614,0.065-1.252-0.121-1.846c-0.295-1.011-1.012-1.885-1.933-2.392
			C24.231,14.639,23.37,14.461,22.536,14.562z"/>
	</g>
</g>
<g id="_x23_000000ff">
	<path d="M31.513,12.345h0.128c0.318,0.032,0.624,0.18,0.834,0.422c0.136,0.152,0.227,0.341,0.274,0.539v0.444
		c-0.042,0.196-0.129,0.381-0.249,0.542c-0.104,0.145-0.237,0.264-0.361,0.39c-1.542,1.542-3.084,3.083-4.625,4.625
		c0.566,2.189,1.133,4.377,1.699,6.566c0.345,1.326,0.682,2.653,1.032,3.977c-0.198,0.215-0.413,0.415-0.618,0.624
		c-0.395,0.392-0.786,0.788-1.183,1.178c-0.901-1.736-1.804-3.471-2.706-5.206c-0.627-1.203-1.248-2.409-1.879-3.61
		c-1.197,1.198-2.399,2.392-3.595,3.592c0.111,0.922,0.214,1.844,0.329,2.765c-0.469,0.481-0.95,0.951-1.424,1.427
		c-0.552-1.046-1.103-2.093-1.654-3.14c-0.023-0.043-0.074-0.055-0.112-0.078c-1.025-0.537-2.049-1.075-3.073-1.612
		c0.475-0.474,0.948-0.95,1.426-1.421c0.93,0.117,1.861,0.228,2.791,0.344c1.201-1.195,2.399-2.394,3.599-3.59
		c-2.964-1.559-5.929-3.117-8.894-4.675v0c0.601-0.598,1.199-1.197,1.8-1.795c3.596,0.95,7.192,1.896,10.787,2.847
		c1.578-1.568,3.148-3.142,4.724-4.711C30.814,12.536,31.152,12.357,31.513,12.345z"/>
</g>
<polygon fill="#FF0000" points="22.999,14.781 14.469,22.351 17.043,22.351 17.043,29.217 21.268,29.217 21.268,23.76 24.789,23.76 
	24.789,29.217 28.956,29.217 28.956,22.351 31.53,22.351 "/>
</svg>
