<?xml version="1.0" encoding="utf-8"?>
<!-- Generator: Adobe Illustrator 17.0.0, SVG Export Plug-In . SVG Version: 6.00 Build 0)  -->
<!DOCTYPE svg PUBLIC "-//W3C//DTD SVG 1.1//EN" "http://www.w3.org/Graphics/SVG/1.1/DTD/svg11.dtd">
<svg version="1.1" id="Слой_1" xmlns="http://www.w3.org/2000/svg" xmlns:xlink="http://www.w3.org/1999/xlink" x="0px" y="0px"
	 width="40px" height="60px" viewBox="0 0 40 60" enable-background="new 0 0 40 60" xml:space="preserve">
<g>
	<g>
		<g>
			<path fill="#31A3D6" d="M9.646,3.054c3.028-1.958,6.623-3.057,10.233-3.05c3.924-0.047,7.843,1.183,11.05,3.439
				c2.763,1.944,5.016,4.623,6.407,7.705c1.241,2.7,1.81,5.693,1.696,8.659c-0.154,4.297-1.59,8.447-3.524,12.251
				c-2.765,5.336-6.527,10.094-10.672,14.422c-1.312,1.342-2.654,2.658-4.059,3.903c-0.32,0.272-0.607,0.589-0.981,0.789
				c-2.552-2.366-4.946-4.9-7.191-7.559c-2.717-3.228-5.218-6.653-7.287-10.336c-2.024-3.639-3.66-7.565-4.204-11.72
				C0.701,18.341,1.09,15.013,2.3,11.998C3.74,8.349,6.357,5.187,9.646,3.054z M18.844,7.078c-1.627,0.188-3.213,0.765-4.564,1.695
				c-1.979,1.342-3.463,3.411-4.071,5.726c-0.503,1.795-0.462,3.728,0.051,5.517c0.624,2.11,1.938,4.022,3.724,5.314
				c1.695,1.258,3.792,1.941,5.897,1.979c2.156,0.016,4.315-0.661,6.063-1.926c2.154-1.537,3.646-3.963,4.065-6.573
				c0.249-1.527,0.162-3.115-0.301-4.594c-0.735-2.515-2.519-4.69-4.811-5.952C23.063,7.269,20.921,6.826,18.844,7.078z"/>
		</g>
	</g>
	<path fill="#31A3D6" d="M20.886,54.193c-0.365,0.31-0.693,0.673-1.121,0.901c-2.166-2.008-4.232-4.123-6.203-6.324
		c-6.361,0.86-10.857,2.953-10.857,5.402c0,3.216,7.743,5.824,17.295,5.824c9.552,0,17.295-2.607,17.295-5.824
		c0-2.451-4.503-4.545-10.871-5.404c-0.301,0.322-0.598,0.649-0.903,0.967C24.023,51.269,22.49,52.771,20.886,54.193z"/>
</g>
</svg>
