<?xml version="1.0" encoding="utf-8"?>
<!-- Generator: Adobe Illustrator 17.0.0, SVG Export Plug-In . SVG Version: 6.00 Build 0)  -->
<!DOCTYPE svg PUBLIC "-//W3C//DTD SVG 1.1//EN" "http://www.w3.org/Graphics/SVG/1.1/DTD/svg11.dtd">
<svg version="1.1" id="Слой_1" xmlns="http://www.w3.org/2000/svg" xmlns:xlink="http://www.w3.org/1999/xlink" x="0px" y="0px"
	 width="40px" height="40px" viewBox="0 0 40 40" enable-background="new 0 0 40 40" xml:space="preserve">
<g id="_x23_000000ff">
	<path fill="#010101" d="M28.513,10.346h0.128c0.318,0.032,0.624,0.18,0.834,0.422c0.136,0.152,0.227,0.341,0.274,0.539v0.444
		c-0.042,0.196-0.129,0.381-0.249,0.542c-0.104,0.145-0.237,0.264-0.361,0.39c-1.542,1.542-3.084,3.083-4.625,4.625
		c0.566,2.189,1.133,4.377,1.699,6.566c0.345,1.326,0.682,2.653,1.032,3.977c-0.198,0.215-0.413,0.415-0.618,0.624
		c-0.395,0.392-0.786,0.788-1.183,1.178c-0.901-1.736-1.804-3.471-2.706-5.206c-0.627-1.203-1.248-2.409-1.879-3.61
		c-1.197,1.198-2.399,2.392-3.595,3.592c0.111,0.922,0.214,1.844,0.329,2.765c-0.469,0.481-0.95,0.951-1.424,1.427
		c-0.552-1.046-1.103-2.093-1.654-3.14c-0.023-0.043-0.074-0.055-0.112-0.078c-1.025-0.537-2.049-1.075-3.073-1.612
		c0.475-0.474,0.948-0.95,1.426-1.421c0.93,0.117,1.861,0.228,2.791,0.344c1.201-1.195,2.399-2.394,3.599-3.59
		c-2.964-1.559-5.929-3.117-8.894-4.675v0c0.601-0.598,1.199-1.197,1.8-1.795c3.596,0.95,7.192,1.896,10.787,2.847
		c1.578-1.568,3.148-3.142,4.724-4.711C27.815,10.537,28.152,10.358,28.513,10.346z"/>
</g>
</svg>
