<svg>
	<circle fill="#4de1c1" stroke="#2fa3d6" cx="18" cy="18" r="17"/>
	<path fill="#FFFFFF" d="M13.316,19.511c-0.966,0-1.738,0.771-1.738,1.738c0,0.958,0.771,1.733,1.738,1.733
		c0.958,0,1.729-0.776,1.729-1.733C15.045,20.282,14.274,19.511,13.316,19.511z M13.311,22.111c-0.477,0-0.871-0.39-0.871-0.867
		s0.394-0.871,0.871-0.871c0.481,0,0.867,0.39,0.867,0.871S13.792,22.111,13.311,22.111z"/>
	<path fill="#FFFFFF" d="M24.426,19.511c-0.962,0-1.738,0.771-1.738,1.738c0,0.958,0.776,1.733,1.738,1.733
		c0.958,0,1.733-0.776,1.733-1.733C26.163,20.282,25.384,19.511,24.426,19.511z M24.426,22.111c-0.481,0-0.871-0.39-0.871-0.867
		s0.39-0.871,0.871-0.871c0.477,0,0.867,0.39,0.867,0.871S24.902,22.111,24.426,22.111z"/>
	<path fill="#FFFFFF" d="M26.823,16.583l-1.555-3.09c-0.274-0.543-0.999-0.991-1.609-0.991H9.363c-0.61,0-1.111,0.502-1.111,1.111
		v8.174h2.986c-0.046-0.174-0.079-0.353-0.079-0.539c0-1.19,0.966-2.156,2.156-2.156c1.182,0,2.148,0.966,2.148,2.156
		c0,0.187-0.033,0.365-0.079,0.539h6.967c-0.046-0.174-0.079-0.353-0.079-0.539c0-1.19,0.962-2.156,2.152-2.156
		c1.186,0,2.152,0.966,2.152,2.156c0,0.187-0.033,0.365-0.079,0.539h2.986v-2.405C29.485,18.769,28.568,16.786,26.823,16.583z
		 M12.781,16.583H9.102v-3.255h3.678V16.583z M17.027,16.583h-3.678v-3.255h3.678V16.583z M21.27,16.583h-3.678v-3.255h3.678V16.583
		z M22.323,16.583v-3.255h1.099c0.39,0,0.85,0.286,1.024,0.63l1.319,2.625H22.323z"/>
</svg>
