<svg>
<circle fill="#4DE1C1" stroke="#2FA3D6" cx="18" cy="18" r="17"/>
<g>
	<path fill="#FFFFFF" d="M11.301,13.953c1.087-0.096,2.179-0.108,3.269-0.112c1.1-0.001,2.2,0.015,3.3,0.043
		c0.551,0.017,1.103,0.027,1.654,0.058c0.403,0.033,0.833,0.083,1.161,0.341c0.296,0.254,0.584,0.518,0.884,0.767
		c0.563,0.529,1.138,1.047,1.705,1.572c0.038,0.034,0.079,0.07,0.132,0.078c0.917,0.126,1.831,0.291,2.726,0.531
		c0.475,0.133,0.953,0.279,1.384,0.525c0.196,0.102,0.335,0.282,0.463,0.457c0.09,0.155,0.199,0.299,0.265,0.467
		c0.066,0.158,0.146,0.316,0.146,0.492c0.014,0.464,0.026,0.928,0.035,1.392c0.005,0.149-0.033,0.307-0.138,0.417
		c-0.121,0.13-0.298,0.184-0.467,0.216c-0.364,0.068-0.736,0.04-1.104,0.023c0.144-0.37,0.189-0.78,0.104-1.17
		c-0.081-0.377-0.272-0.732-0.549-1.001c-0.278-0.282-0.646-0.473-1.035-0.545c-0.462-0.089-0.954-0.004-1.36,0.233
		c-0.313,0.18-0.575,0.447-0.75,0.763c-0.23,0.412-0.306,0.907-0.207,1.369c0.023,0.118,0.068,0.231,0.096,0.348
		c-2.618,0.005-5.237-0.006-7.855-0.003c-0.629,0.005-1.258-0.01-1.887-0.007c-0.23-0.003-0.461,0.006-0.691-0.004
		c0.033-0.152,0.081-0.301,0.09-0.457c0.031-0.357-0.029-0.722-0.187-1.045c-0.213-0.448-0.599-0.809-1.06-0.992
		c-0.396-0.159-0.844-0.186-1.255-0.073c-0.446,0.118-0.845,0.4-1.111,0.778c-0.209,0.294-0.336,0.646-0.36,1.006
		c-0.024,0.265,0.026,0.529,0.095,0.784C8.731,21.2,8.669,21.192,8.611,21.17c-0.2-0.074-0.395-0.163-0.579-0.27
		c-0.237-0.142-0.375-0.403-0.439-0.665c-0.029-0.113-0.022-0.231,0-0.345c0.163-0.875,0.328-1.749,0.491-2.623
		c0.024-0.121,0.056-0.244,0.129-0.345c0.558-0.779,1.117-1.557,1.675-2.337c0.121-0.172,0.248-0.361,0.453-0.44
		c0.202-0.075,0.412-0.14,0.629-0.148C11.082,13.991,11.191,13.966,11.301,13.953 M20.369,14.494
		c-0.157,0.027-0.316,0.036-0.471,0.066c0.018,0.026,0.036,0.052,0.057,0.076c0.688,0.735,1.376,1.472,2.063,2.208
		c0.025,0.027,0.066,0.012,0.098,0.013c0.283-0.041,0.567-0.079,0.851-0.119c-0.137-0.144-0.292-0.27-0.436-0.408
		c-0.66-0.605-1.32-1.21-1.98-1.816C20.502,14.464,20.429,14.49,20.369,14.494 M15.234,14.571c0.024,0.689,0.077,1.378,0.104,2.067
		c0.093,0.014,0.187,0.018,0.28,0.021c1.837,0.077,3.673,0.167,5.509,0.244c-0.018-0.027-0.036-0.053-0.056-0.079
		c-0.595-0.734-1.192-1.466-1.785-2.201c-0.021-0.031-0.055-0.048-0.093-0.046c-1.18-0.007-2.359-0.009-3.539-0.012
		C15.514,14.565,15.374,14.557,15.234,14.571 M11.622,14.667c-0.082,0.004-0.166-0.007-0.245,0.017
		c-0.065,0.071-0.11,0.157-0.165,0.235c-0.338,0.489-0.665,0.985-1.003,1.474c-0.028,0.041-0.051,0.084-0.074,0.128
		c1.29,0.032,2.579,0.071,3.869,0.106c0.167,0.003,0.335,0.016,0.502,0.006c0.009-0.672-0.01-1.344-0.014-2.016
		c-0.091-0.01-0.184-0.008-0.276-0.005C13.351,14.631,12.487,14.651,11.622,14.667z"/>
	<circle fill="none" stroke="#FFFFFF" stroke-width="0.75" cx="10.699" cy="20.635" r="1.318"/>
	<circle fill="none" stroke="#FFFFFF" stroke-width="0.75" cx="24.892" cy="20.522" r="1.318"/>
</g>
</svg>
