<svg>
	<circle fill="#4de1c1" stroke="#2fa3d6" cx="18" cy="18" r="17"/>
	<path fill="#FFFFFF" d="M10.048,21.382L11.642,18l-1.594-3.382h1.983l2.255,1.983h3.577l-2.488-7.97h1.983l4.471,7.97h5.132
		l0.739,0.039c0.518,0.026,1.024,0.156,1.516,0.389s0.739,0.557,0.739,0.972c0,0.259-0.11,0.486-0.33,0.68s-0.46,0.337-0.719,0.428
		c-0.259,0.091-0.557,0.155-0.894,0.194c-0.337,0.039-0.577,0.065-0.719,0.078c-0.143,0.013-0.253,0.019-0.33,0.019h-5.132
		l-4.471,7.97h-1.983l2.488-7.97h-3.577l-2.255,1.983L10.048,21.382L10.048,21.382z"/>
</svg>
