<svg>
	<circle fill="#4DE1C1" stroke="#2FA3D6" cx="18" cy="18" r="17"/>
	<g>
		<path fill="#FFFFFF" d="M16.82,8.349C17.145,8.112,17.551,8.011,17.949,8c0.436-0.006,0.887,0.094,1.241,0.359
			c0.208,0.157,0.378,0.397,0.371,0.667c0.001,0.353,0,0.705,0.001,1.058c-0.449-0.194-0.889-0.408-1.337-0.606
			c-0.147-0.067-0.321-0.063-0.466,0.006c-0.44,0.198-0.876,0.406-1.317,0.6c-0.004-0.366-0.005-0.732,0-1.098
			C16.445,8.724,16.617,8.499,16.82,8.349z"/>
		<path fill="#FFFFFF" d="M17.787,10.661c0.213-0.101,0.441-0.005,0.634,0.094c1.189,0.546,2.38,1.089,3.569,1.633
			c0.092,0.036,0.178,0.114,0.172,0.221c0.006,0.677-0.004,1.353,0.004,2.03c0.074,0.072,0.183,0.096,0.274,0.144
			c0.67,0.307,1.342,0.612,2.012,0.922c0.182,0.075,0.258,0.31,0.162,0.481c-0.788,1.747-1.566,3.498-2.36,5.241
			c-0.659,0.134-1.124,0.688-1.76,0.878c-0.217,0.067-0.452,0.047-0.663-0.033c-0.521-0.196-0.934-0.599-1.458-0.788
			c-0.218-0.083-0.463-0.095-0.685-0.021c-0.586,0.193-1.033,0.668-1.626,0.844c-0.301,0.095-0.619,0.004-0.89-0.135
			c-0.481-0.246-0.906-0.61-1.437-0.752c-0.78-1.752-1.572-3.5-2.357-5.25c-0.089-0.174,0-0.405,0.183-0.473
			c0.755-0.346,1.509-0.695,2.267-1.034c0.02-0.685-0.002-1.371,0.011-2.056c-0.006-0.098,0.066-0.177,0.153-0.211
			C15.256,11.818,16.521,11.239,17.787,10.661 M17.786,11.921c-0.934,0.421-1.861,0.859-2.798,1.273
			c-0.016,0.31-0.008,0.621-0.007,0.931c0.94-0.415,1.868-0.856,2.805-1.276c0.14-0.061,0.303-0.06,0.441,0.007
			c0.93,0.419,1.852,0.856,2.785,1.268c0.01-0.304,0.002-0.608,0.006-0.911c-0.897-0.429-1.809-0.828-2.71-1.249
			C18.149,11.881,17.955,11.842,17.786,11.921z"/>
		<path fill="#FFFFFF" d="M9.169,22.212c0.761,0.069,1.273,0.749,1.999,0.919c0.191,0.044,0.392,0.017,0.575-0.051
			c0.542-0.202,0.965-0.634,1.519-0.81c0.224-0.076,0.471-0.055,0.689,0.029c0.538,0.201,0.967,0.619,1.515,0.8
			c0.219,0.073,0.46,0.068,0.677-0.011c0.523-0.183,0.933-0.584,1.447-0.786c0.216-0.087,0.458-0.111,0.683-0.046
			c0.638,0.186,1.107,0.733,1.762,0.878c0.466,0.091,0.879-0.204,1.255-0.435c0.381-0.236,0.794-0.537,1.268-0.465
			c0.681,0.134,1.166,0.707,1.831,0.886c0.306,0.084,0.626-0.015,0.896-0.162c0.512-0.26,0.96-0.702,1.558-0.747
			c0.009,0.336,0.003,0.673,0.003,1.009c-0.557,0.042-0.988,0.432-1.457,0.691c-0.29,0.166-0.628,0.311-0.968,0.227
			c-0.657-0.161-1.135-0.71-1.789-0.879c-0.339-0.087-0.681,0.052-0.97,0.22c-0.371,0.21-0.71,0.485-1.118,0.627
			c-0.238,0.084-0.503,0.067-0.736-0.026c-0.484-0.192-0.879-0.55-1.358-0.752c-0.22-0.104-0.471-0.068-0.705-0.061
			c-0.653,0.175-1.125,0.748-1.795,0.881c-0.477,0.077-0.896-0.221-1.283-0.455c-0.379-0.229-0.791-0.52-1.258-0.449
			c-0.689,0.135-1.167,0.739-1.847,0.898c-0.426,0.089-0.819-0.149-1.166-0.363c-0.382-0.229-0.762-0.532-1.226-0.547
			C9.147,22.895,9.145,22.552,9.169,22.212z"/>
		<path fill="#FFFFFF" d="M9.157,24.155c0.797,0.057,1.32,0.804,2.094,0.931c0.437,0.049,0.821-0.213,1.173-0.433
			c0.395-0.246,0.826-0.566,1.319-0.472c0.666,0.148,1.145,0.708,1.801,0.88c0.226,0.064,0.467,0.026,0.68-0.062
			c0.481-0.198,0.876-0.558,1.359-0.752c0.209-0.084,0.444-0.117,0.664-0.056c0.654,0.177,1.129,0.742,1.796,0.886
			c0.481,0.083,0.903-0.224,1.288-0.464c0.38-0.238,0.804-0.532,1.277-0.429c0.627,0.149,1.089,0.652,1.695,0.853
			c0.174,0.055,0.363,0.075,0.543,0.033c0.725-0.173,1.236-0.86,2.001-0.914c0.003,0.337,0,0.674,0.002,1.012
			c-0.551,0.032-0.98,0.418-1.44,0.677c-0.3,0.177-0.656,0.325-1.008,0.232c-0.658-0.171-1.138-0.73-1.804-0.882
			c-0.384-0.084-0.75,0.115-1.067,0.307c-0.39,0.231-0.762,0.538-1.225,0.599c-0.468,0.036-0.864-0.262-1.243-0.492
			c-0.372-0.231-0.787-0.51-1.247-0.417c-0.645,0.145-1.11,0.682-1.737,0.872c-0.227,0.068-0.472,0.047-0.691-0.038
			c-0.516-0.198-0.932-0.59-1.452-0.78c-0.232-0.087-0.493-0.095-0.726-0.007c-0.531,0.19-0.946,0.604-1.475,0.797
			c-0.178,0.066-0.374,0.09-0.56,0.05c-0.732-0.168-1.246-0.861-2.015-0.919C9.151,24.829,9.155,24.492,9.157,24.155z"/>
	</g>
</svg>
