<svg>
	<circle fill="#4de1c1" stroke="#2fa3d6" cx="18" cy="18" r="17"/>
	<g>
		<path id="path2233" fill="#FFFFFF" d="M17.064,8.747c-0.389,0-0.705-0.315-0.705-0.705c0-0.389,0.315-0.705,0.705-0.705
			c0.389,0,0.705,0.315,0.705,0.705C17.768,8.431,17.453,8.747,17.064,8.747z"/>
		<path id="path2235" fill="#FFFFFF" d="M18.936,8.747c0.389,0,0.705-0.315,0.705-0.705c0-0.389-0.315-0.705-0.705-0.705
			c-0.389,0-0.705,0.315-0.705,0.705C18.232,8.431,18.547,8.747,18.936,8.747z"/>
		<path fill="#FFFFFF" d="M21.729,22.973c0.977-0.157,1.95-1.177,1.95-2.419v-9.083c0-1.282-1.079-2.459-2.544-2.459L18.012,9.01
			l-3.147,0.002c-1.465,0-2.544,1.177-2.544,2.459v9.083c0,1.242,0.973,2.262,1.95,2.419l-2.931,4.396h1.691l2.096-3.073h2.87H18
			h0.003h2.87l2.096,3.073h1.691L21.729,22.973z M16.349,9.947c0-0.223,0.194-0.41,0.417-0.41h1.232H18h0.003h1.232
			c0.223,0,0.417,0.187,0.417,0.41v0.722c0,0.223-0.183,0.415-0.417,0.415h-1.232H18h-0.003h-1.232c-0.234,0-0.417-0.192-0.417-0.415
			V9.947z M14.812,21.648c-0.616,0-1.115-0.499-1.115-1.115c0-0.616,0.499-1.115,1.115-1.115c0.616,0,1.115,0.499,1.115,1.115
			C15.928,21.148,15.428,21.648,14.812,21.648z M18,15.747h-0.003H14.95c-0.701,0-1.274-0.481-1.268-1.267v-1.635
			c0-0.68,0.439-1.272,1.268-1.272h3.047h0.005h3.047c0.828,0,1.268,0.593,1.268,1.272v1.635c0.006,0.786-0.567,1.267-1.268,1.267
			h-3.047H18z M20.047,20.532c0-0.616,0.499-1.115,1.115-1.115c0.616,0,1.115,0.499,1.115,1.115c0,0.616-0.499,1.115-1.115,1.115
			C20.546,21.648,20.047,21.148,20.047,20.532z"/>
	</g>
</svg>
